<svg version="1.1" xmlns="http://www.w3.org/2000/svg" xmlns:xlink="http://www.w3.org/1999/xlink" width="192.99023" height="192.93175" viewBox="0,0,192.99023,192.93175"><g transform="translate(-143.75977,-56.25)"><g data-paper-data="{&quot;isPaintingLayer&quot;:true}" stroke-miterlimit="10" stroke-dasharray="" stroke-dashoffset="0" style="mix-blend-mode: normal"><path d="M144.25,248.75v-192.5h192.5v192.5z" fill="#00d9ff" fill-rule="nonzero" stroke="none" stroke-width="NaN" stroke-linecap="butt" stroke-linejoin="miter"/><g><path d="M143.75977,249.18175v-32.74186h192.28402v32.74186z" fill="#420000" fill-rule="nonzero" stroke="none" stroke-width="0" stroke-linecap="butt" stroke-linejoin="miter"/><path d="M143.95621,217.23164v-8.33429h192.28402v8.33429z" fill="#00ff2d" fill-rule="nonzero" stroke="none" stroke-width="0" stroke-linecap="butt" stroke-linejoin="miter"/><path d="M271.75975,219.50396v-37.06758h43.70992v37.06758z" fill="#420000" fill-rule="nonzero" stroke="none" stroke-width="0" stroke-linecap="butt" stroke-linejoin="miter"/><path d="M271.80442,183.33273v-9.43538h43.70992v9.43538z" fill="#00ff2d" fill-rule="nonzero" stroke="none" stroke-width="0" stroke-linecap="butt" stroke-linejoin="miter"/><g><g fill-rule="evenodd"><path d="M276.39002,134.7266c3.18575,-2.34742 6.7069,-8.49541 7.65702,-10.89875c1.50908,-3.96822 7.48938,-0.78247 5.0861,4.47127c-2.34742,5.19788 -11.45766,10.00449 -11.45766,10.00449c-2.23563,1.34138 -4.35948,-1.2296 -1.28546,-3.57701z" fill="#f9a41e" stroke="none" stroke-width="1" stroke-linecap="butt" stroke-linejoin="miter"/><path d="M276.39002,134.7266c3.18575,-2.34742 6.7069,-8.49541 7.65702,-10.89875c1.50908,-3.96822 7.48938,-0.78247 5.0861,4.47127c-2.34742,5.19788 -11.45766,10.00449 -11.45766,10.00449c-2.23563,1.34138 -4.35948,-1.2296 -1.28546,-3.57701z" fill="none" stroke="#231f20" stroke-width="0.9025" stroke-linecap="round" stroke-linejoin="round"/></g><path d="M258.78675,160.69667c-1.33521,0.07418 -4.75988,4.00797 -5.88898,4.90749c-0.94566,0.75337 -13.48071,3.57323 -14.87128,3.83801c-1.18085,0.22485 -3.00833,-0.19904 -3.99362,-0.69169c-4.0607,-2.03035 -4.30535,-7.4322 -1.88215,-10.71756c1.49694,-2.02955 13.79419,-8.15224 16.81269,-8.89711c2.05471,-0.50703 2.90081,-2.08231 5.32172,-2.08231c0.21218,0 0.42403,0.01304 0.635,0.03832c1.64747,0.06095 3.11092,0.84212 4.08471,2.03791c3.33728,3.06171 4.8433,8.66818 0.33398,10.92284z" fill="#0090ff" fill-rule="nonzero" stroke="none" stroke-width="0.5" stroke-linecap="butt" stroke-linejoin="miter"/><g fill-rule="evenodd"><path d="M267.44749,122.98952l5.58909,-5.64501l1.78851,7.82472c0,0 3.35345,1.67672 5.4773,5.58909c2.12385,3.8565 1.78851,7.04225 1.78851,7.04225c0,0 3.74466,0.50305 4.30356,5.36553c1.00603,9.27788 -9.94857,15.42588 -24.08893,14.14042c-10.67519,-0.89426 -18.83525,-7.76887 -18.38813,-16.20836c0.44713,-7.60116 4.08006,-10.28391 4.08006,-10.28391l-1.2296,-12.8549l9.05432,6.31564c0,0 2.73862,-1.39724 5.86851,-1.56495c3.12989,-0.05586 5.75679,0.27949 5.75679,0.27949z" fill="#f9a41e" stroke="none" stroke-width="1" stroke-linecap="butt" stroke-linejoin="miter"/><path d="M282.03497,137.80057c2.23563,0.44713 3.52116,1.50908 4.30363,5.36553c1.11782,5.19788 -3.91237,15.98479 -24.089,14.14042c-6.65098,-0.5589 -13.86094,-3.63294 -11.4576,-12.46369c2.12385,-8.16006 14.53162,-2.8504 19.45002,-3.80058c4.97425,-0.89426 6.81869,-4.13592 11.79294,-3.24167z" fill="#ffffff" stroke="none" stroke-width="1" stroke-linecap="butt" stroke-linejoin="miter"/><path d="M257.27535,125.33694l-2.57098,-1.84443" fill="none" stroke="#231f20" stroke-width="0.63175" stroke-linecap="round" stroke-linejoin="round"/><path d="M267.44749,122.98952l5.58909,-5.64501l1.78851,7.82472c0,0 3.35345,1.67672 5.4773,5.58909c2.12385,3.8565 1.78851,7.04225 1.78851,7.04225c0,0 3.74466,0.50305 4.30356,5.36553c1.00603,9.27788 -9.94857,15.42588 -24.08893,14.14042c-10.67519,-0.89426 -18.83525,-7.76887 -18.38813,-16.20836c0.44713,-7.60116 4.08006,-10.28391 4.08006,-10.28391l-1.2296,-12.8549l9.05432,6.31564c0,0 2.73862,-1.39724 5.86851,-1.56495c3.12989,-0.05586 5.75679,0.27949 5.75679,0.27949z" fill="none" stroke="#231f20" stroke-width="0.9025" stroke-linecap="round" stroke-linejoin="round"/></g><path d="M245.22644,133.25793c0.46973,-1.8789 2.34862,-1.40917 2.34862,-1.40917l1.47266,0.44272c0.2153,0.12401 0.43297,0.24415 0.65277,0.36048v-0.15117c0.01245,-0.04981 0.02527,-0.09923 0.03845,-0.14826c0.23377,-1.92906 1.5124,-3.53603 3.25311,-4.23812c2.5485,-1.34072 5.97912,-0.9807 8.66167,0.6152c2.06266,-0.47081 4.42784,-0.55448 6.52599,-0.50949c0.60844,-0.96089 1.51989,-1.71089 2.60003,-2.11567c0.12793,-0.08172 0.25963,-0.15805 0.39478,-0.22868c0.18079,-0.12505 0.3779,-0.22891 0.59476,-0.3072c6.84297,-2.47034 15.14378,7.96889 10.36216,12.7505c-0.38027,0.38027 -0.74506,0.71928 -1.09774,1.01702c-1.71317,2.7664 -6.55642,3.56307 -9.32025,2.18116c-0.98789,-0.49395 -1.81636,-1.17343 -2.48704,-1.9767c-1.33312,0.0778 -2.75173,0.08072 -4.14212,-0.0235c-1.60583,3.71751 -5.42894,6.42809 -9.81091,3.96319c-0.17277,-0.09718 -0.3263,-0.21542 -0.46561,-0.34942c-0.95558,-0.69681 -1.66723,-1.70803 -1.98284,-2.88156c-0.29609,-0.25454 -0.57635,-0.52467 -0.83731,-0.80903c-0.75179,-0.71137 -1.48667,-1.46975 -1.94096,-2.35194c-1.00012,-0.42149 -1.978,-0.89865 -2.92073,-1.43371l-0.49033,-0.04802c0,0 -1.8789,-0.46973 -1.40917,-2.34862z" fill="#ff0000" fill-rule="nonzero" stroke="none" stroke-width="0.5" stroke-linecap="butt" stroke-linejoin="miter"/><g fill-rule="evenodd"><path d="M241.62591,161.10709c4.9184,-6.65104 11.28996,-10.00449 11.28996,-10.00449l11.12225,5.36553c0,0 -5.25374,8.32777 -7.65702,9.3338c0,0 -5.98035,-0.61483 -8.49541,-2.01208" fill="#f9a41e" stroke="none" stroke-width="1" stroke-linecap="butt" stroke-linejoin="miter"/><path d="M241.62591,161.10709c5.64495,-6.65104 11.28996,-10.00449 11.28996,-10.00449l11.12225,5.36553c0,0 -5.25374,8.32777 -7.65702,9.3338c0,0 -5.98035,-0.61483 -8.49541,-2.01208" fill="none" stroke="#231f20" stroke-width="0.9025" stroke-linecap="round" stroke-linejoin="round"/><path d="M260.90823,157.58593c-3.12989,6.48334 -10.00443,5.14196 -11.17817,2.57098c-1.17368,-2.57098 2.96224,-6.20385 5.19788,-7.20989c2.23563,-0.95018 8.27185,0 5.98029,4.63891z" fill="#ffffff" stroke="none" stroke-width="1" stroke-linecap="butt" stroke-linejoin="miter"/></g><g fill-rule="evenodd"><path d="M248.50045,163.06324c-1.73259,1.90029 -3.07396,4.63897 -4.35948,7.15403c-2.51506,4.80661 -8.27178,2.17977 -6.93046,-2.12385c1.06195,-3.18575 4.4154,-6.98633 4.4154,-6.98633" fill="#f9a41e" stroke="none" stroke-width="1" stroke-linecap="butt" stroke-linejoin="miter"/><path d="M248.50045,163.06324c-1.73259,1.90029 -3.07396,4.63897 -4.35948,7.15403c-2.51506,4.80661 -8.27178,2.17977 -6.93046,-2.12385c1.06195,-3.18575 4.4154,-6.98633 4.4154,-6.98633" fill="none" stroke="#231f20" stroke-width="0.9025" stroke-linecap="round" stroke-linejoin="round"/></g><g fill-rule="evenodd"><path d="M259.56685,167.86986c-1.34138,3.35345 -4.30356,5.0861 -6.65098,4.13592c-2.01208,-0.78247 -2.40334,-3.6888 -1.00603,-6.20385c1.56495,-2.79455 4.30356,-4.4154 6.37156,-3.80058c1.95614,0.67069 2.40327,3.01811 1.28546,5.86851z" fill="#f9a41e" stroke="none" stroke-width="1" stroke-linecap="butt" stroke-linejoin="miter"/><path d="M259.56685,167.86986c-1.34138,3.35345 -4.30356,5.0861 -6.65098,4.13592c-2.01208,-0.78247 -2.40334,-3.6888 -1.00603,-6.20385c1.56495,-2.79455 4.30356,-4.4154 6.37156,-3.80058c1.95614,0.67069 2.40327,3.01811 1.28546,5.86851z" fill="none" stroke="#231f20" stroke-width="0.9025" stroke-linecap="round" stroke-linejoin="round"/></g><g fill-rule="evenodd"><path d="M249.73006,152.10863c0,0 -4.52713,-0.5589 -6.5392,3.52116c-1.67672,3.63288 -7.88059,2.12385 -4.97432,-3.07403c2.57098,-4.63891 9.11024,-3.52109 9.11024,-3.52109z" fill="#f9a41e" stroke="none" stroke-width="1" stroke-linecap="butt" stroke-linejoin="miter"/><path d="M249.73006,152.10863c0,0 -4.52713,-0.5589 -6.5392,3.52116c-1.67672,3.63288 -7.60116,2.2915 -4.97432,-3.07403c2.23563,-4.63891 9.11024,-3.52109 9.11024,-3.52109z" fill="none" stroke="#231f20" stroke-width="0.9025" stroke-linecap="round" stroke-linejoin="round"/></g><g fill="none" fill-rule="evenodd" stroke="#231f20" stroke-width="0.9025" stroke-linecap="round" stroke-linejoin="round"><path d="M245.53828,144.06035c0,0 -2.40334,0.22356 -3.6888,0.27949c-1.28552,0 -4.08006,-0.27949 -4.08006,-0.27949"/><path d="M237.32228,137.40937c0,0 1.50908,0.33534 4.30363,1.6208c2.51506,1.17374 4.08,2.40334 4.08,2.40334"/></g><g fill-rule="evenodd" stroke="#231f20" stroke-linecap="round" stroke-linejoin="round"><path d="M269.73899,139.4773c1.11782,-0.16764 3.12989,-0.72655 3.35345,0.61483c0,0.5589 -1.11782,2.8504 -2.51506,2.90632c-1.34138,0.05586 -3.80058,-1.50908 -3.63294,-2.57098c0.16771,-1.00603 1.78851,-0.78247 2.79455,-0.95018z" fill="#231f20" stroke-width="0.63175"/><path d="M274.37795,145.06638c0.05586,1.34138 -8.71898,2.34742 -8.60719,0.61483" fill="none" stroke-width="0.9025"/></g><g fill="#231f20" fill-rule="evenodd" stroke="#231f20" stroke-width="0.63175" stroke-linecap="round" stroke-linejoin="round" opacity="0.1"><path d="M250.17719,153.05881c-0.44713,0.33534 -0.95011,0.72655 -1.50903,1.11782"/><path d="M263.36743,157.47416c-0.22356,0.33534 -0.5589,0.83839 -0.95011,1.34138"/></g><g fill="none" fill-rule="evenodd" stroke="#231f20" stroke-width="0.9025" stroke-linecap="round" stroke-linejoin="round"><path d="M290.86573,138.69482c0,0 -1.28546,1.06195 -3.12989,1.62087c-1.56495,0.50298 -4.63891,0.95011 -4.63891,0.95011"/><path d="M290.13916,146.46368c0,0 -1.28552,0.05586 -3.12989,-0.16771c-1.84443,-0.22356 -3.6888,-1.00603 -3.6888,-1.00603"/></g><g fill-rule="evenodd"><path d="M262.58496,132.71453c1.90029,3.07396 1.62087,6.7069 -0.61477,8.10414c-2.23563,1.39731 -5.64501,0.05592 -7.5453,-3.01811c-1.90029,-3.07396 -1.6208,-6.7069 0.61483,-8.10414c2.23563,-1.39731 5.64495,-0.05592 7.54523,3.01811z" fill="#ffffff" stroke="#231f20" stroke-width="0.9025" stroke-linecap="round" stroke-linejoin="round"/><path d="M261.49364,134.92075c0,0.72655 -0.5589,1.28546 -1.2296,1.28546c-0.61483,0 -1.2296,-0.61477 -1.2296,-1.34138c0,-0.72655 0.5589,-1.28546 1.2296,-1.28546c0.72655,0.05586 1.2296,0.61477 1.2296,1.34138" fill="#231f20" stroke="none" stroke-width="1" stroke-linecap="butt" stroke-linejoin="miter"/></g><g fill-rule="evenodd"><path d="M278.84922,130.8701c1.90029,3.07403 1.90029,6.48334 0,7.71294c-1.90029,1.2296 -4.97432,-0.33534 -6.93046,-3.40932c-1.90029,-3.07403 -1.90029,-6.48334 0,-7.71294c1.90029,-1.17374 5.03017,0.33534 6.93046,3.40932z" fill="#ffffff" stroke="#231f20" stroke-width="0.9025" stroke-linecap="round" stroke-linejoin="round"/><path d="M277.92555,132.90868c0.22356,0.72655 -0.22356,1.45316 -0.83839,1.56495c-0.61477,0.16764 -1.34138,-0.27949 -1.50903,-1.00603c-0.22356,-0.72661 0.22356,-1.45316 0.83833,-1.56495c0.61483,-0.11178 1.28552,0.33534 1.50908,1.00603" fill="#231f20" stroke="none" stroke-width="1" stroke-linecap="butt" stroke-linejoin="miter"/></g></g><g fill-rule="nonzero" stroke="none" stroke-width="0.66342" stroke-linecap="butt" stroke-linejoin="miter"><g><g><path d="M176.39787,210.38784c-1.73046,0 -3.90111,-0.02471 -6.00051,-0.0484c-1.71823,-0.01955 -3.34148,-0.03792 -4.53383,-0.04027c-0.16686,0.00631 -0.39634,0.00947 -0.66825,0.00947c-2.9663,0 -11.09144,-0.36613 -11.17321,-0.36988c-0.40265,0.00217 -0.9161,0.04524 -1.45953,0.09106c-0.65424,0.05488 -1.39596,0.11749 -2.10686,0.11749c-1.45837,0 -3.44477,-0.22691 -3.85554,-2.18982c-0.09456,-0.45222 0.15166,-1.1473 0.43664,-1.95204c0.21307,-0.60131 0.43325,-1.22295 0.44113,-1.60191c0.0075,-0.35231 -0.03614,-0.77785 -0.08234,-1.22831c-0.11276,-1.09876 -0.24055,-2.34425 0.32011,-3.15961c0.60488,-0.88037 1.65741,-1.50081 2.58595,-2.04822c0.67557,-0.39834 1.31361,-0.77452 1.63786,-1.16907c0.34044,-0.41428 0.61771,-0.86947 0.88588,-1.30987c0.58217,-0.95577 1.13192,-1.85863 2.22595,-2.23167c0.42201,-0.14396 0.83512,-0.21387 1.26245,-0.21387c0.59244,0 1.14279,0.1335 1.72535,0.27471c0.70558,0.171 1.43545,0.34793 2.39637,0.34793c0.41866,0 0.8393,-0.03336 1.28578,-0.10227c1.80473,-0.27805 2.37485,-0.68644 2.9785,-1.11892c0.63193,-0.45259 1.28537,-0.92083 3.2473,-1.18681c0.41688,-0.05667 0.8292,-0.08532 1.22553,-0.08532c3.81366,0 6.53764,2.70365 6.94028,6.88795c0.16332,1.70007 1.44572,2.26426 2.93055,2.9173c1.13981,0.50139 2.31856,1.01994 3.07804,2.11418c1.13511,1.63587 0.79643,3.08495 0.31261,4.0125c-0.97395,1.86614 -3.40666,3.27772 -5.65905,3.28284l-0.37721,0.0008z" fill="#91b6c5"/><path d="M169.17323,191.46866c-0.37993,0 -0.77491,0.02685 -1.18583,0.08254c-3.75284,0.50909 -2.44655,1.72376 -6.2205,2.30492c-0.48698,0.07504 -0.92755,0.10584 -1.33097,0.10584c-1.81738,0 -2.8887,-0.62265 -4.12192,-0.62265c-0.36672,0 -0.74764,0.05493 -1.1669,0.19789c-1.4771,0.50356 -1.9007,2.13749 -2.97871,3.44932c-0.8219,0.99999 -3.20345,1.7346 -4.2086,3.19693c-0.71388,1.03813 -0.15915,2.99589 -0.18545,4.22598c-0.01936,0.91174 -1.02983,2.79012 -0.8843,3.48722c0.33591,1.6045 1.88788,1.95421 3.56564,1.95421c1.28179,0 2.63688,-0.20399 3.57982,-0.20813c0,0 8.16584,0.36946 11.15978,0.36946c0.26757,0 0.49329,-0.00316 0.66885,-0.00947c2.63312,0.00512 7.37137,0.08867 10.53395,0.08867c0.12817,0 0.25376,0 0.37657,-0.00042c3.29075,-0.00768 7.50409,-3.3713 5.10398,-6.8303c-1.68013,-2.42084 -5.74773,-1.92221 -6.06014,-5.17207c-0.34699,-3.60866 -2.62328,-6.61997 -6.64527,-6.61997M169.17323,191.46866v-0.59244v0c2.05888,0 3.83458,0.74231 5.13517,2.14635c1.18109,1.27492 1.90702,3.00717 2.09975,5.00917c0.13963,1.45343 1.13789,1.96332 2.75499,2.67462c1.12266,0.49388 2.39499,1.05356 3.20208,2.21668c0.95163,1.37106 1.06933,2.90487 0.33175,4.3184c-1.02096,1.95678 -3.56621,3.43646 -5.9209,3.442l-0.37797,0.00039c-1.73186,0 -3.9035,-0.02468 -6.00366,-0.04837c-1.71251,-0.01955 -3.33023,-0.03772 -4.52022,-0.04031c-0.17535,0.00613 -0.40363,0.00949 -0.67891,0.00949c-2.91219,0 -10.7743,-0.35151 -11.17142,-0.36949c-0.40325,0.00277 -0.90523,0.04482 -1.43644,0.08965c-0.65997,0.05569 -1.40821,0.1185 -2.13156,0.1185c-0.89968,0 -3.63768,0 -4.1452,-2.42541c-0.11159,-0.53339 0.14732,-1.26462 0.44727,-2.11138c0.19551,-0.55217 0.41726,-1.17815 0.42418,-1.50972c0.00711,-0.33374 -0.03571,-0.7504 -0.08097,-1.19158c-0.11808,-1.14949 -0.25175,-2.45244 0.37047,-3.35729c0.64221,-0.93445 1.72476,-1.57271 2.67995,-2.13588c0.65227,-0.3847 1.26836,-0.74785 1.55946,-1.10193c0.32702,-0.39813 0.59895,-0.8442 0.86179,-1.27589c0.58393,-0.95895 1.18782,-1.95026 2.38354,-2.35785c0.45319,-0.15463 0.89751,-0.22968 1.35803,-0.22968c0.62777,0 1.19473,0.13746 1.79505,0.28299c0.68879,0.16686 1.40089,0.33966 2.32665,0.33966c0.40325,0 0.80909,-0.0322 1.24075,-0.09873c1.73462,-0.26718 2.2771,-0.65563 2.85117,-1.06697c0.66135,-0.47372 1.34519,-0.96348 3.37979,-1.23956c0.4303,-0.05826 0.85587,-0.08787 1.26544,-0.08787z" fill="#000000"/></g><path d="M155.54876,198.10759c-1.28082,-0.30154 -2.31302,-0.01836 -3.36517,0.74645c-0.77411,0.5624 -1.49766,1.32172 -2.3855,1.70345c-0.14437,0.0618 -0.33296,-0.12204 -0.18524,-0.23995c1.83295,-1.46348 3.53737,-3.60393 6.12847,-2.90606c0.45004,0.12106 0.25986,0.80235 -0.19256,0.69611z" fill="#231f20"/><path d="M151.69521,200.02172c-0.10248,0.00908 -0.12144,-0.15363 -0.02447,-0.17753c2.01227,-0.48519 3.60098,-1.84165 5.73767,-1.11177c0.39039,0.13329 0.22411,0.75314 -0.17083,0.62045c-1.10193,-0.36988 -2.1201,-0.35902 -3.20584,0.05826c-0.78101,0.30058 -1.50081,0.53695 -2.33654,0.6106z" fill="#231f20"/><path d="M172.99064,204.53998c0.60744,-0.52785 1.38845,-1.11969 1.71231,-1.87701c0.2354,-0.54881 0.34145,-1.18446 0.14317,-1.76505c-0.18229,-0.53534 -0.52687,-0.7119 -0.8361,-1.11335c-0.42242,-0.5474 -0.82587,-2.01843 -0.44551,-2.66415c0.11731,-0.19827 0.37342,-0.17121 0.49567,0c0.28121,0.39297 0.19133,1.18979 0.25,1.64575c0.10227,0.7911 0.92418,1.23857 1.01977,2.0662c0.19155,1.64695 -0.8926,2.95975 -2.07745,3.96946c-0.18051,0.15363 -0.44274,-0.10448 -0.26185,-0.26185z" fill="#231f20"/><path d="M172.36049,206.05955c-0.1165,0.03319 -0.19628,-0.14416 -0.08354,-0.19964c0.82643,-0.40226 1.87206,-0.81301 2.49847,-1.51031c0.33136,-0.36925 0.72394,-0.86887 0.74091,-1.39496c0.00929,-0.28158 -0.02625,-0.54107 0.04128,-0.81574c0.04897,-0.19789 0.33788,-0.23679 0.43585,-0.05667c0.41726,0.77015 -0.30433,1.81005 -0.86435,2.32231c-0.82507,0.75514 -1.69296,1.34797 -2.76862,1.65503z" fill="#231f20"/><path d="M167.8389,192.88179c-1.14478,0.05293 -1.80375,0.66805 -2.73367,1.22908c-0.76797,0.46388 -1.48028,0.71388 -2.34737,0.92142c-0.01777,0.00416 -0.0239,-0.02131 -0.00694,-0.02664c1.09066,-0.35723 2.06917,-1.03992 3.00146,-1.68626c0.63251,-0.43896 1.28695,-0.88014 2.08653,-0.80334c0.23182,0.02253 0.23872,0.35467 0,0.36574z" fill="#231f20"/></g><g><g><path d="M161.79103,212.95045c-0.09848,0 -0.19469,-0.00269 -0.2888,-0.00764c-0.6784,-0.03746 -1.3481,-0.28488 -1.99567,-0.52404c-0.71502,-0.26442 -1.45441,-0.53772 -2.21702,-0.53772c-0.03478,0 -0.06973,0.00044 -0.1047,0.00166c-0.42268,0.01387 -0.89788,0.10759 -1.35762,0.19799c-0.51824,0.10223 -1.05431,0.20795 -1.54753,0.20795c-0.83521,0 -1.4149,-0.31179 -1.77241,-0.95274c-0.69368,-1.244 -0.13157,-1.75441 0.889,-2.68149c0.31344,-0.28466 0.66867,-0.60743 1.07605,-1.02162c0.09143,-0.09288 0.22406,-0.36037 0.36473,-0.64382c0.54162,-1.09194 1.5498,-3.12486 4.07241,-3.12486c1.94144,0 3.53861,1.62553 4.5956,2.70135c0.24249,0.24661 0.45207,0.45989 0.62376,0.61012c0.9577,0.83788 2.31094,3.30423 1.57463,4.34385c-0.63413,0.89561 -2.48743,1.43103 -3.91246,1.43103v0z" fill="#5f8ba5"/><path d="M158.90927,204.17423c-3.02783,0 -3.66813,3.11948 -4.21577,3.67601c-1.75938,1.78918 -2.66537,1.98964 -1.91539,3.33444c0.34054,0.61073 0.87742,0.7936 1.50141,0.7936c0.89377,0 1.96607,-0.37528 2.89498,-0.40569c0.03829,-0.00125 0.07656,-0.00187 0.11482,-0.00187c1.52954,0 2.87184,0.98769 4.22986,1.06217c0.08832,0.00476 0.17916,0.00723 0.27163,0.00723c1.36257,0 3.10561,-0.51827 3.65924,-1.3003c0.59152,-0.83521 -0.59604,-3.11739 -1.52579,-3.93089c-0.92975,-0.81347 -2.76713,-3.23471 -5.01498,-3.23471M158.90927,204.17423v-0.62065v0c2.07178,0 3.7238,1.68138 4.81698,2.79404c0.23812,0.24247 0.4438,0.45162 0.60661,0.59418c0.94154,0.82364 2.53149,3.47512 1.62366,4.75659c-0.7181,1.01501 -2.68229,1.56244 -4.16573,1.56244c-0.10406,0 -0.20688,-0.00291 -0.30578,-0.00829c-0.72493,-0.0397 -1.41699,-0.29541 -2.08626,-0.54287c-0.72121,-0.26648 -1.4023,-0.51824 -2.10946,-0.51824c-0.03143,0 -0.0629,0.0004 -0.09456,0.00144c-0.39764,0.01325 -0.83953,0.10035 -1.30771,0.19242c-0.53295,0.10509 -1.08412,0.21371 -1.60753,0.21371c-0.94444,0 -1.63195,-0.37426 -2.04344,-1.11203c-0.81372,-1.45919 -0.07325,-2.13156 0.9515,-3.06236c0.31051,-0.282 0.66225,-0.60144 1.06235,-1.0084c0.0629,-0.06907 0.19946,-0.34425 0.30911,-0.5652c0.5714,-1.15258 1.63523,-3.2974 4.35025,-3.2974z" fill="#000000"/></g><path d="M157.50138,207.93091c0.48952,0.13906 0.94363,0.30433 1.3448,0.62524c0.20439,0.16365 -0.09209,0.4713 -0.2913,0.2913c-0.74068,-0.66764 -2.19179,-0.51724 -2.70902,-1.41802c-0.01696,-0.03022 0.01138,-0.07282 0.04656,-0.06062c0.54102,0.18518 1.05618,0.40487 1.60897,0.56212z" fill="#231f20"/><path d="M157.94042,208.74192c0.14626,0.08937 0.01325,0.31884 -0.13447,0.23027c-0.69184,-0.41523 -2.10759,-0.22425 -2.37033,-1.17821c-0.02192,-0.07843 0.08978,-0.15643 0.14586,-0.08481c0.33496,0.42556 0.6664,0.60926 1.19851,0.71396c0.39225,0.07675 0.81122,0.10594 1.16044,0.31881z" fill="#231f20"/></g></g><g data-paper-data="{&quot;index&quot;:null}" fill-rule="nonzero" stroke="none" stroke-width="0.95" stroke-linecap="butt" stroke-linejoin="miter"><g><path d="M168.62001,149.57906c0.01591,-4.97292 -5.60474,-13.83172 -9.48263,-17.57367c-0.8994,-0.86717 -1.60715,-2.82146 -1.35548,-6.43973c0.11254,-1.60991 0.43419,-3.29541 1.18689,-5.08785c0,0 0.3316,-1.64093 2.15066,-4.59121c3.15942,-5.12167 13.19319,-8.98005 11.59278,1.92959c-0.47873,3.26641 -2.18804,6.60593 -3.20555,7.98485c0.65447,-0.32127 3.90338,-2.15665 5.19679,-0.54272c1.65449,2.06519 -4.61866,6.75978 -4.61866,6.75978c1.64176,-0.64689 3.86044,-1.08866 4.52403,0.2207c0.93041,1.83814 -2.27313,4.58924 -2.27313,4.58924c0.95623,0.08229 2.65128,0.02821 2.9638,0.95825c0.31252,0.93 -1.06682,2.87792 -1.68747,3.41428c1.78327,0.1996 2.67949,0.98968 2.68945,1.7682c0.08668,0.82782 -1.14274,2.4775 -3.03897,3.69578c1.07954,2.05168 -0.08467,4.30338 -1.02701,4.7829c-0.9022,0.45964 -1.77732,0.37255 -2.64374,-0.14276c-0.40874,-0.23937 -0.97532,-0.72801 -0.97176,-1.72564z" fill="#279afa"/><path d="M168.62,149.57907c0.01591,-4.97292 -5.60474,-13.83172 -9.48263,-17.57367c-0.8994,-0.86717 -1.60715,-2.82146 -1.35548,-6.43973c0.11254,-1.60991 0.43419,-3.29541 1.18689,-5.08785c1.09937,-2.66559 5.67907,-7.77173 8.69498,-7.04092c5.36893,1.3014 -1.99723,14.68821 -1.99723,14.68821c10.69816,-3.11649 1.14751,5.42184 1.14751,5.42184c9.70492,-1.80675 2.54514,4.38922 2.54514,4.38922c6.69458,-0.18089 1.3161,4.43936 1.3161,4.43936c5.67589,0.24175 2.58724,4.28944 2.58724,4.28944c1.07954,2.05168 -0.08467,4.30334 -1.02701,4.78286c-0.9022,0.45964 -1.77732,0.37259 -2.64374,-0.14272c-0.40874,-0.23979 -0.97532,-0.72843 -0.97176,-1.72606z" fill="#0043a5"/></g><path d="M167.54806,158.84146c1.08548,-0.94753 3.03935,-2.00359 3.47354,-1.87514c0.64175,0.18768 1.50021,0.75028 2.1515,0.90815c-1.32246,0.5328 -4.55944,1.77611 -4.63817,2.07235c-0.21948,0.82305 0.25648,1.35188 0.15787,2.21072c-0.05927,0.4835 -0.61195,0.76978 -1.06602,0.63141c-0.41431,-0.12845 -0.50337,-0.51292 -0.71051,-0.90777c-0.80916,-1.53955 -2.67476,-0.8783 -4.38169,-0.63178c-0.7499,0.10853 -1.80596,-0.28628 -1.65767,-1.02626c0.19722,-0.94748 1.48628,-1.22544 3.91531,-1.45128c-2.25965,-0.39523 -2.95824,-1.41073 -2.45486,-1.78566c0.55268,-0.41474 1.0461,-0.43462 1.73677,-0.35547c1.60874,0.19759 2.6648,0.80953 3.47392,2.21072z" fill="#ffa600"/><g><path d="M164.27649,147.73614c-0.84729,-2.40079 -2.59838,-3.82704 -5.02741,-4.63181c-0.37693,-0.12485 -0.77057,-0.24054 -1.17333,-0.34354c-1.78369,-0.45566 -3.75786,-0.62902 -5.39083,0.07316c0.2656,-0.32324 0.5829,-0.64769 0.97176,-0.97214c5.20433,-4.34352 11.60827,-2.14631 17.3983,1.46878c4.43417,2.76776 15.70451,10.39438 18.75457,9.82935c10.00551,-7.37968 13.55661,-6.21426 14.34706,-4.63256c0.73437,1.49699 -0.96025,3.16341 -2.31611,4.18008c2.43657,0.41633 3.84889,0.24694 4.01074,1.92089c0.14871,1.53436 -2.03339,1.75108 -3.55863,2.14631c1.35586,0.56461 2.50772,1.45844 1.98446,2.56259c-0.50852,1.07355 -3.10694,1.29939 -4.68864,0.84733c0.84733,1.5817 2.03339,5.25326 -1.6457,3.93356c-3.41628,-1.22582 -5.36617,-3.10653 -8.24727,-5.42264c-4.46243,4.63181 -11.07154,6.72204 -14.2914,5.4791c-5.63575,-2.17494 -8.99001,-7.34189 -10.93948,-13.2178c0.20078,-0.64376 0.24812,-1.30936 0.12406,-2.04691c-0.06245,-0.37137 -0.16621,-0.76065 -0.31215,-1.17375z" fill="#ff0600"/><path d="M159.24908,143.10394c-0.37693,-0.12485 -0.77057,-0.24058 -1.17333,-0.34354c2.33595,-1.92364 5.51011,-1.59404 8.43415,-0.28071c1.8445,0.83022 3.1105,2.82343 1.96023,4.36022c-1.38608,1.85208 -3.13599,2.21788 -3.88191,2.06997c-0.0624,-0.37137 -0.1662,-0.76065 -0.3121,-1.17375c-0.84691,-2.4012 -2.598,-3.82741 -5.02703,-4.63218z" fill="#0043a5"/><path d="M151.96207,143.21687c0.23179,-0.1503 0.47354,-0.27636 0.72286,-0.38372c1.63298,-0.70218 3.60714,-0.52882 5.39083,-0.07316c0.40238,0.10301 0.79639,0.21869 1.17333,0.34354c2.42903,0.80477 4.18012,2.23103 5.02741,4.63181c0.14553,0.4131 0.24933,0.80238 0.31215,1.17375c0.12405,0.73755 0.07672,1.40315 -0.12368,2.04649c-0.23697,0.76023 -0.69105,1.48828 -1.37494,2.25923c-1.53956,1.73719 -4.28547,2.68987 -6.14985,1.20715c1.55345,-0.50852 2.33674,-2.06837 2.13915,-3.6926c-4.73757,-1.61748 -8.18328,5.78246 -9.20753,10.50651c-5.32005,-11.66276 2.09027,-18.01899 2.09027,-18.01899z" fill="#ffa600"/></g><path d="M169.75321,164.68952c1.32246,-1.5817 3.79481,-3.60199 4.58489,-3.88429c0.73517,0.67795 2.19323,1.18091 3.14909,1.25805c-2.132,1.11452 -5.46441,2.18766 -6.09184,3.96737c-0.40514,1.14952 0.66523,1.85367 0.71809,3.08907c0.02465,0.69662 -0.69264,1.22503 -1.36498,1.13119c-0.61433,-0.08827 -0.82624,-0.61232 -1.20757,-1.12403c-1.48824,-1.99442 -3.9765,-0.64254 -6.33434,0.08827c-1.0358,0.32127 -2.61629,-0.00042 -2.57297,-1.07954c0.06679,-1.3829 2.97254,-3.15026 6.07911,-2.75466c-0.84733,-0.84729 -5.03297,0.11334 -4.68864,-1.63816c0.19085,-0.97017 1.33041,-1.35703 2.32444,-1.39997c2.31766,-0.08111 3.94707,0.54749 5.40472,2.34671z" fill="#ffa600"/><g><path d="M164.89799,143.75402c0.61312,0.69742 0.79083,2.25924 -0.29503,3.06639c-2.7817,2.06721 -5.93916,-1.04572 -4.06519,-3.14708c1.11173,-1.24733 3.35824,-1.05966 4.36022,0.08069z" fill="#ffffff"/><path d="M161.85386,145.0618c0.1626,0.14632 0.26322,0.34831 0.26322,0.57135c0,0.22308 -0.10062,0.42507 -0.26322,0.57139c-0.16264,0.14632 -0.38727,0.23698 -0.63538,0.23698c-0.24811,0 -0.47278,-0.09066 -0.63538,-0.23698c-0.16265,-0.14632 -0.26322,-0.34831 -0.26322,-0.57139c0,-0.22304 0.10058,-0.42503 0.26322,-0.57135c0.1626,-0.14632 0.38727,-0.23698 0.63538,-0.23698c0.24811,0 0.47274,0.09066 0.63538,0.23698z" fill="#272525"/></g><g><path d="M172.22757,147.39975c5.9451,-3.22267 12.85322,-15.70451 14.79076,-22.77125c0.4493,-1.63816 2.31929,-3.75705 6.80155,-5.8143c1.99484,-0.91568 4.21548,-1.63021 6.84529,-1.89979c0,0 2.17456,-0.67435 6.88108,-0.42582c8.17093,0.43181 19.31558,9.89059 5.25325,15.09215c-4.20992,1.55747 -9.3097,1.69425 -11.61861,1.37892c0.80992,0.57177 5.11807,3.25289 4.03497,5.84808c-1.38608,3.32127 -11.0771,-1.10574 -11.0771,-1.10574c1.84254,1.53754 3.81549,3.89739 2.6851,5.54271c-1.58647,2.30853 -6.95821,0.27912 -6.95821,0.27912c0.52522,1.1948 1.69462,3.18207 0.78844,4.16141c-0.90614,0.97892 -4.1296,0.60237 -5.1749,0.21191c0.92405,2.25844 0.56578,3.84253 -0.35668,4.36143c-0.93159,0.64334 -3.70215,0.25129 -6.39122,-1.21669c-1.7451,2.62583 -5.19081,2.70334 -6.37728,1.89142c-1.13679,-0.77651 -1.60279,-1.87832 -1.55349,-3.24807c0.01988,-0.64456 0.23421,-1.63859 1.42705,-2.28548z" fill="#279afa"/><path d="M172.22758,147.39975c5.9451,-3.22267 12.85322,-15.70451 14.79076,-22.77125c0.4493,-1.63816 2.31929,-3.75705 6.80155,-5.8143c1.99484,-0.91568 4.21548,-1.63021 6.84529,-1.89979c3.8974,-0.42582 12.97648,1.71132 14.06991,5.78685c1.94591,7.25525 -18.83092,7.19004 -18.83092,7.19004c10.69258,10.73553 -5.72244,4.90373 -5.72244,4.90373c8.48228,10.40434 -3.57851,5.8978 -3.57851,5.8978c4.5797,7.87193 -4.43974,4.46477 -4.43974,4.46477c3.41072,6.93038 -3.43219,5.88349 -3.43219,5.88349c-1.7451,2.62583 -5.19081,2.70334 -6.37728,1.89142c-1.13679,-0.77651 -1.60279,-1.87832 -1.55349,-3.24807c0.01988,-0.64376 0.23421,-1.63779 1.42705,-2.28468z" fill="#0043a5"/></g></g></g></g></g></svg>