<svg version="1.1" xmlns="http://www.w3.org/2000/svg" xmlns:xlink="http://www.w3.org/1999/xlink" width="64" height="64" viewBox="0,0,64,64"><g transform="translate(-208,-148)"><g data-paper-data="{&quot;isPaintingLayer&quot;:true}" stroke-linecap="butt" stroke-linejoin="miter" stroke-miterlimit="10" stroke-dasharray="" stroke-dashoffset="0" style="mix-blend-mode: normal"><path d="M208,212v-64h64v64z" fill="#ffffff" fill-rule="nonzero" stroke="none" stroke-width="0"/><g fill-rule="evenodd" stroke="none" stroke-width="1"><path d="M265.03751,183.44239c-0.29355,0.44033 -0.78281,0.78281 -1.12529,1.22314c-0.78281,1.02744 -0.78281,1.95702 -0.34248,3.13124c0.97851,2.54413 0.34248,5.47967 -1.71239,7.28992c-0.97851,0.88066 -2.29951,1.41884 -3.57157,1.56562c-1.76132,0.1957 -1.66347,0.1957 -3.13124,1.61455c-1.22314,1.27206 -1.46777,3.42479 -2.73984,4.64794c-0.78281,0.78281 -2.05488,2.1038 -5.13719,1.56562c-1.66347,-0.34248 -2.88661,-0.83174 -4.50116,-1.17421c-2.39735,-0.48926 -2.1038,-0.24463 -3.8162,1.17421c-2.29951,1.85917 -5.67537,2.98447 -8.07273,0.88066c-1.27206,-1.12529 -1.9081,-2.49521 -2.88661,-3.8162c-1.46777,-2.00595 -3.13124,-1.85917 -5.38182,-2.00595c-2.54413,-0.14678 -4.25653,-2.39735 -4.25653,-5.03934c-0.04892,-1.71239 0.1957,-3.57157 -0.78281,-5.13719c-0.73388,-1.17421 -1.46777,-2.05488 -2.29951,-3.13124c-2.15273,-2.69091 -1.27206,-5.33289 0.04892,-8.12165c0.97851,-2.05488 -1.41884,-3.08231 -0.88066,-5.08826c0.34248,-1.27206 4.06082,-3.03339 4.30545,-6.36033c0.09785,-1.27206 -0.29355,-5.33289 2.49521,-5.03934c0.83174,0.09785 1.95702,0.14678 2.69091,-0.34248c0.92959,-0.63604 0.92959,-0.92959 1.12529,-1.95702c0.5871,-3.13124 2.54413,-4.74578 5.77322,-3.76727c1.22314,0.39141 2.15273,0.97851 3.42479,0.83174c1.32099,-0.14678 1.95702,-1.12529 3.03339,-1.76132c1.17421,-0.73388 2.88661,-1.36992 4.30545,-1.02744c1.36992,0.34248 1.56562,1.41884 2.34843,2.44628c1.61455,2.1038 3.57157,0.29355 5.52859,0.04892c2.39735,-0.29355 4.40331,1.07637 4.89256,3.13124c0.1957,0.78281 0.44033,1.32099 0.97851,1.9081c0.73388,0.78281 1.07637,0.83174 2.05488,0.88066c1.17421,0.04892 2.78876,0.5871 3.62049,1.41884c2.34843,2.44628 0.1957,5.67537 0.48926,8.6109c0.1957,2.20165 2.00595,2.78876 3.22909,4.30545c0.78281,0.92959 1.22314,2.15273 1.27206,3.37587c0.04892,1.32099 -0.29355,2.64198 -0.97851,3.71835z" fill="#df6530"/><path d="M262.68908,185.00801c0.39141,1.71239 0.53818,3.57157 -0.53818,5.08826c-0.63604,0.88066 -1.51669,0.83174 -2.15273,1.51669c-1.61455,1.76132 -0.44033,4.30545 -1.9081,6.55603c-0.83174,1.27206 -3.47372,1.46777 -5.03934,1.56562c-0.14678,0 -0.92959,0.14678 -1.02744,0.78281c-0.68496,2.44628 -3.52264,2.83769 -5.92,3.03339c-1.81025,0.14678 -3.22909,1.22314 -5.08826,0.92959c-0.83174,-0.14678 -1.66347,-0.5871 -2.49521,-0.68496c-1.27206,-0.14678 -1.71239,0.44033 -2.78876,0.5871c-1.61455,0.14678 -2.54413,-1.07637 -3.91405,-1.61455c-1.41884,-0.53818 -2.98447,-0.34248 -4.35438,-1.07637c-1.46777,-0.78281 -2.25058,-2.29951 -3.62049,-3.18016c-1.07637,-0.68496 -1.71239,-1.51669 -2.25058,-2.69091c-0.48926,-0.97851 -0.5871,-1.71239 -1.56562,-2.34843c-0.48926,-0.34248 -0.88066,-0.44033 -1.32099,-0.88066c-1.07637,-1.07637 -2.39735,-1.56562 -2.59306,-4.40331c-0.04892,-0.83174 -0.34248,-1.41884 -0.34248,-2.25058c0,-0.88066 -0.09785,-1.46777 -0.34248,-2.39735c-0.48926,-1.61455 0.24463,-3.18016 0.5871,-4.84363c0.39141,-2.1038 -0.09785,-3.76727 0,-5.92c0.04892,-1.51669 0.53818,-2.64198 1.61455,-3.71835c0.68496,-0.63604 1.56562,-1.02744 2.1038,-1.85917c0.5871,-0.92959 0.73388,-2.05488 1.17421,-3.03339c0.53818,-1.22314 1.27206,-2.20165 2.54413,-2.78876c0.09785,-0.04892 4.06082,-1.41884 7.09421,-4.40331c1.95702,-1.95702 4.40331,-0.24463 6.94743,-0.14678c2.83769,0.09785 5.18612,-1.17421 7.97488,-0.09785c1.27206,0.48926 2.44628,1.32099 3.71835,1.71239c1.22314,0.39141 1.95702,-0.04892 3.22909,0.24463c2.39735,0.5871 3.47372,4.89256 5.23504,6.99637c1.76132,2.05488 4.10975,2.29951 4.74578,5.13719c0.34248,1.36992 -0.14678,2.69091 0.44033,3.96298c0.48926,1.02744 1.32099,1.81025 1.66347,2.88661c0.73388,2.39735 -2.25058,5.67537 -1.81025,7.33884z" fill="#ea9b1f"/><path d="M218.47862,179.72404c0,-11.9061 9.6518,-21.55791 21.55791,-21.55791c11.9061,0 21.55791,9.6518 21.55791,21.55791c0,11.9061 -9.6518,21.55791 -21.55791,21.55791c-11.9061,0 -21.55791,-9.6518 -21.55791,-21.55791z" fill="#f9d20d"/></g><path d="M246.69954,205.85376c-1.23147,1.37279 -3.52081,0.50827 -3.52081,-1.33278v-30.92987c0,-1.74099 2.09148,-2.64954 3.38353,-1.46886l22.83682,20.84806c1.35263,1.23273 0.47243,3.47001 -1.36875,3.47001h-9.27764l3.67115,8.18322c0.73133,1.63188 0.01643,3.55856 -1.60231,4.30183c-1.61874,0.73913 -3.52507,0.01662 -4.25637,-1.6194l-3.71398,-8.27512z" fill="#ffffff" fill-rule="evenodd" stroke="#000000" stroke-width="1"/></g></g></svg>